<svg xmlns="http://www.w3.org/2000/svg" xmlns:xlink="http://www.w3.org/1999/xlink" width="402" height="89" viewBox="0 0 402 89">
  <defs>
    <clipPath id="clip-Artboard_1">
      <rect width="402" height="89"/>
    </clipPath>
  </defs>
  <g id="Artboard_1" data-name="Artboard 1" clip-path="url(#clip-Artboard_1)">
    <g id="Group_1" data-name="Group 1">
      <path id="Path_1" data-name="Path 1" d="M28.41,55.184,42.931,13.818h7.732L32.424,63.772H24.445L6.058,13.818h7.88Z" fill="#322f3e"/>
      <path id="Path_2" data-name="Path 2" d="M64.48,13.818V63.772H57.145V13.818Z" fill="#322f3e"/>
      <path id="Path_3" data-name="Path 3" d="M76.86,13.818h7.335v7.753a16.933,16.933,0,0,1,2.974-3.68,19.762,19.762,0,0,1,3.717-2.748,18.253,18.253,0,0,1,4.064-1.718,14.753,14.753,0,0,1,4.015-.588,19.119,19.119,0,0,1,9,2.061,20.22,20.22,0,0,1,6.666,5.569,24.9,24.9,0,0,1,4.138,8.219A34.675,34.675,0,0,1,120.177,38.7a35.518,35.518,0,0,1-1.388,10.035,25.633,25.633,0,0,1-4.064,8.292,19.8,19.8,0,0,1-6.592,5.643,18.779,18.779,0,0,1-8.97,2.086,15.685,15.685,0,0,1-3.99-.54,20.019,20.019,0,0,1-4.064-1.57,19.124,19.124,0,0,1-3.791-2.576,17.52,17.52,0,0,1-3.123-3.558v27.43H76.86Zm7.335,26.154a23.68,23.68,0,0,0,1.165,7.189,19.943,19.943,0,0,0,3,5.84,14.254,14.254,0,0,0,4.51,3.925,11.711,11.711,0,0,0,5.749,1.448,11.14,11.14,0,0,0,5.9-1.6A14.777,14.777,0,0,0,109,52.51a20.4,20.4,0,0,0,2.849-6.257,28.2,28.2,0,0,0,.992-7.556,27.668,27.668,0,0,0-.992-7.508A20.494,20.494,0,0,0,109,24.981a14.247,14.247,0,0,0-4.486-4.22,11.413,11.413,0,0,0-5.9-1.545,11.59,11.59,0,0,0-5.873,1.521,14.2,14.2,0,0,0-4.535,4.171,21.132,21.132,0,0,0-2.949,6.158,25.6,25.6,0,0,0-1.066,7.483Z" fill="#322f3e"/>
      <path id="Path_4" data-name="Path 4" d="M129.137,13.818h7.336l-.3,8.293a18.512,18.512,0,0,1,5.477-6.232,12.69,12.69,0,0,1,7.36-2.159c.23,0,.552.017.965.049s.843.074,1.289.123.875.115,1.289.2a5.135,5.135,0,0,1,.966.27v7.409a14.92,14.92,0,0,0-2.577-.613,15.605,15.605,0,0,0-2.131-.221,12.026,12.026,0,0,0-5.2,1.08,11.579,11.579,0,0,0-3.865,2.919,13.072,13.072,0,0,0-2.429,4.22,14.813,14.813,0,0,0-.842,4.981V63.772h-7.336Z" fill="#322f3e"/>
      <path id="Path_5" data-name="Path 5" d="M156.138,38.942A33.826,33.826,0,0,1,157.6,28.907a24.841,24.841,0,0,1,4.312-8.293,20.615,20.615,0,0,1,16.628-7.777,20.917,20.917,0,0,1,16.776,7.777,25.034,25.034,0,0,1,4.411,8.293,32.8,32.8,0,0,1,1.512,10.035,32.163,32.163,0,0,1-1.512,9.937,24.818,24.818,0,0,1-4.411,8.219,21.036,21.036,0,0,1-7.112,5.594,21.723,21.723,0,0,1-9.664,2.061,21.451,21.451,0,0,1-9.591-2.061,20.608,20.608,0,0,1-7.037-5.594,24.62,24.62,0,0,1-4.312-8.219A33.165,33.165,0,0,1,156.138,38.942Zm7.335,0a26,26,0,0,0,1.041,7.434,20.321,20.321,0,0,0,2.974,6.183A14.6,14.6,0,0,0,172.22,56.8a12.694,12.694,0,0,0,6.32,1.57,12.973,12.973,0,0,0,6.368-1.57,15.183,15.183,0,0,0,4.857-4.245,19.763,19.763,0,0,0,3.073-6.183,25.459,25.459,0,0,0,1.066-7.434,25.957,25.957,0,0,0-1.066-7.483,19.994,19.994,0,0,0-3.073-6.257,15.349,15.349,0,0,0-4.857-4.293,12.818,12.818,0,0,0-6.368-1.6,12.543,12.543,0,0,0-6.32,1.6,14.763,14.763,0,0,0-4.732,4.293,20.564,20.564,0,0,0-2.974,6.257A26.513,26.513,0,0,0,163.473,38.942Z" fill="#322f3e"/>
      <path id="Path_6" data-name="Path 6" d="M219.814,4v9.818h8.921V20h-8.921v32.73a7.678,7.678,0,0,0,.422,2.723,4.562,4.562,0,0,0,1.139,1.767,4.056,4.056,0,0,0,1.71.932,8.082,8.082,0,0,0,2.131.27,16.088,16.088,0,0,0,2.875-.27q1.486-.27,2.577-.515v5.937a33.293,33.293,0,0,1-3.346.785,22.523,22.523,0,0,1-4.237.393,14.508,14.508,0,0,1-3.791-.515,10.027,10.027,0,0,1-3.42-1.644,8.512,8.512,0,0,1-2.453-2.92,9.342,9.342,0,0,1-.942-4.392V20h-7.731V13.818h7.731V4Z" fill="#322f3e"/>
      <path id="Path_7" data-name="Path 7" d="M234.078,38.942a33.826,33.826,0,0,1,1.462-10.035,24.823,24.823,0,0,1,4.312-8.293,20.615,20.615,0,0,1,16.628-7.777,20.917,20.917,0,0,1,16.776,7.777,25.034,25.034,0,0,1,4.411,8.293,32.8,32.8,0,0,1,1.512,10.035,32.163,32.163,0,0,1-1.512,9.937,24.818,24.818,0,0,1-4.411,8.219,21.046,21.046,0,0,1-7.112,5.594,21.723,21.723,0,0,1-9.664,2.061,21.448,21.448,0,0,1-9.591-2.061,20.608,20.608,0,0,1-7.037-5.594,24.6,24.6,0,0,1-4.312-8.219A33.166,33.166,0,0,1,234.078,38.942Zm7.335,0a26,26,0,0,0,1.041,7.434,20.343,20.343,0,0,0,2.973,6.183A14.613,14.613,0,0,0,250.16,56.8a12.694,12.694,0,0,0,6.32,1.57,12.972,12.972,0,0,0,6.368-1.57,15.183,15.183,0,0,0,4.857-4.245,19.764,19.764,0,0,0,3.073-6.183,25.46,25.46,0,0,0,1.065-7.434,25.957,25.957,0,0,0-1.065-7.483A20,20,0,0,0,267.7,25.2a15.349,15.349,0,0,0-4.857-4.293,12.818,12.818,0,0,0-6.368-1.6,12.543,12.543,0,0,0-6.32,1.6,14.776,14.776,0,0,0-4.733,4.293,20.586,20.586,0,0,0-2.973,6.257A26.513,26.513,0,0,0,241.413,38.942Z" fill="#322f3e"/>
      <path id="Path_8" data-name="Path 8" d="M318.718,28.834q-1.536-5.2-4.51-7.361a13.031,13.031,0,0,0-7.83-2.159,12.117,12.117,0,0,0-6.1,1.521,13.785,13.785,0,0,0-4.485,4.073,19.413,19.413,0,0,0-2.776,5.888,24.9,24.9,0,0,0-.966,6.968,29.5,29.5,0,0,0,.966,7.484,23.134,23.134,0,0,0,2.8,6.6,15.807,15.807,0,0,0,4.461,4.687,10.309,10.309,0,0,0,5.947,1.791,11.438,11.438,0,0,0,4.782-.957,11.278,11.278,0,0,0,3.619-2.576,14.139,14.139,0,0,0,2.5-3.779A19.273,19.273,0,0,0,318.57,46.4h8.078a24.556,24.556,0,0,1-2.205,7.679,18.663,18.663,0,0,1-4.312,5.79,18.189,18.189,0,0,1-6.245,3.632,24.065,24.065,0,0,1-7.954,1.251,18.983,18.983,0,0,1-6.691-1.129,18.619,18.619,0,0,1-5.378-3.067,20.516,20.516,0,0,1-4.088-4.563,27.68,27.68,0,0,1-2.85-5.619,34.024,34.024,0,0,1-1.66-6.207,38.164,38.164,0,0,1-.545-6.4,30.005,30.005,0,0,1,1.536-9.691,24.217,24.217,0,0,1,4.386-7.925,20.839,20.839,0,0,1,6.864-5.349,20.274,20.274,0,0,1,9.02-1.962,23.154,23.154,0,0,1,7.756,1.2,18.22,18.22,0,0,1,5.874,3.337,17.78,17.78,0,0,1,4.064,5.078,22.977,22.977,0,0,1,2.279,6.38Z" fill="#322f3e"/>
      <path id="Path_9" data-name="Path 9" d="M332.04,38.942A33.826,33.826,0,0,1,333.5,28.907a24.823,24.823,0,0,1,4.312-8.293,20.615,20.615,0,0,1,16.628-7.777,20.917,20.917,0,0,1,16.776,7.777,25.034,25.034,0,0,1,4.411,8.293,32.8,32.8,0,0,1,1.512,10.035,32.163,32.163,0,0,1-1.512,9.937,24.818,24.818,0,0,1-4.411,8.219,21.046,21.046,0,0,1-7.112,5.594,21.723,21.723,0,0,1-9.664,2.061,21.448,21.448,0,0,1-9.591-2.061,20.608,20.608,0,0,1-7.037-5.594,24.6,24.6,0,0,1-4.312-8.219A33.165,33.165,0,0,1,332.04,38.942Zm7.335,0a26,26,0,0,0,1.041,7.434,20.343,20.343,0,0,0,2.973,6.183,14.613,14.613,0,0,0,4.733,4.245,12.694,12.694,0,0,0,6.32,1.57,12.973,12.973,0,0,0,6.368-1.57,15.183,15.183,0,0,0,4.857-4.245,19.763,19.763,0,0,0,3.073-6.183,25.459,25.459,0,0,0,1.065-7.434,25.956,25.956,0,0,0-1.065-7.483,19.994,19.994,0,0,0-3.073-6.257,15.349,15.349,0,0,0-4.857-4.293,12.818,12.818,0,0,0-6.368-1.6,12.543,12.543,0,0,0-6.32,1.6,14.776,14.776,0,0,0-4.733,4.293,20.586,20.586,0,0,0-2.973,6.257A26.513,26.513,0,0,0,339.375,38.942Z" fill="#322f3e"/>
      <path id="Path_10" data-name="Path 10" d="M393.387,4.02V63.772h-7.335V4.02Z" fill="#322f3e"/>
    </g>
    <g id="Group_2" data-name="Group 2">
      <path id="Path_11" data-name="Path 11" d="M32.354,68.793,64.48,83.871H6.669L24.606,68.793Z" fill="#7517d6"/>
    </g>
  </g>
</svg>
