<svg width="901" height="581" viewBox="0 0 901 581" fill="none" xmlns="http://www.w3.org/2000/svg">
<g clip-path="url(#clip0)">
<path d="M69.08 264.2C69.08 264.2 -98.92 60.2 89.08 8.20002C277.08 -43.8 343.08 168.2 471.08 174.2C599.08 180.2 749.08 94.2 789.08 94.2C829.08 94.2 901.08 98.2 897.08 168.2C893.08 238.2 841.08 302.2 839.08 336.2C837.08 370.2 885.08 462.2 893.08 484.2C901.08 506.2 911.08 568.2 867.08 572.2C844.56 574.2 716.08 599.2 542.08 548.2C410.41 509.61 204.32 576.2 156.27 576.2C140.709 576.238 125.522 571.429 112.82 562.44C77.52 537.33 21.35 474.26 71.08 344.2C97.08 276.2 69.08 264.2 69.08 264.2Z" fill="#F8F8FF" fill-opacity="0.4"/>
<path d="M237.08 297.2C265.247 297.2 288.08 274.367 288.08 246.2C288.08 218.033 265.247 195.2 237.08 195.2C208.913 195.2 186.08 218.033 186.08 246.2C186.08 274.367 208.913 297.2 237.08 297.2Z" fill="white"/>
<path d="M175.08 289.2C193.858 289.2 209.08 273.978 209.08 255.2C209.08 236.422 193.858 221.2 175.08 221.2C156.302 221.2 141.08 236.422 141.08 255.2C141.08 273.978 156.302 289.2 175.08 289.2Z" fill="white"/>
<path d="M291.08 289.2C309.305 289.2 324.08 274.425 324.08 256.2C324.08 237.975 309.305 223.2 291.08 223.2C272.855 223.2 258.08 237.975 258.08 256.2C258.08 274.425 272.855 289.2 291.08 289.2Z" fill="white"/>
<path d="M702.08 453.2C730.247 453.2 753.08 430.367 753.08 402.2C753.08 374.033 730.247 351.2 702.08 351.2C673.913 351.2 651.08 374.033 651.08 402.2C651.08 430.367 673.913 453.2 702.08 453.2Z" fill="white"/>
<path d="M639.08 441.2C657.858 441.2 673.08 425.978 673.08 407.2C673.08 388.422 657.858 373.2 639.08 373.2C620.302 373.2 605.08 388.422 605.08 407.2C605.08 425.978 620.302 441.2 639.08 441.2Z" fill="white"/>
<path d="M758.08 444.2C776.305 444.2 791.08 429.425 791.08 411.2C791.08 392.975 776.305 378.2 758.08 378.2C739.855 378.2 725.08 392.975 725.08 411.2C725.08 429.425 739.855 444.2 758.08 444.2Z" fill="white"/>
<path d="M152.08 504.2C170.858 504.2 186.08 488.978 186.08 470.2C186.08 451.422 170.858 436.2 152.08 436.2C133.302 436.2 118.08 451.422 118.08 470.2C118.08 488.978 133.302 504.2 152.08 504.2Z" fill="white"/>
<path d="M192.08 500.2C205.335 500.2 216.08 489.455 216.08 476.2C216.08 462.945 205.335 452.2 192.08 452.2C178.825 452.2 168.08 462.945 168.08 476.2C168.08 489.455 178.825 500.2 192.08 500.2Z" fill="white"/>
<path d="M233.08 394.2C233.08 394.2 256.08 365.2 280.08 397.2C280.08 397.2 303.08 363.2 317.08 392.2" stroke="#BAC6F2" stroke-width="5" stroke-linecap="round" stroke-linejoin="round"/>
<path d="M177.08 368.05C177.08 368.05 193.6 347.2 210.83 370.2C210.83 370.2 227.35 345.78 237.4 366.61" stroke="#BAC6F2" stroke-width="5" stroke-linecap="round" stroke-linejoin="round"/>
<path d="M710.08 207.05C710.08 207.05 726.6 186.22 743.83 209.2C743.83 209.2 760.35 184.78 770.4 205.61" stroke="#BAC6F2" stroke-width="5" stroke-linecap="round" stroke-linejoin="round"/>
<path d="M70.08 105.05C70.08 105.05 86.6 84.2 103.83 107.2C103.83 107.2 120.35 82.78 130.4 103.61" stroke="#BAC6F2" stroke-width="5" stroke-linecap="round" stroke-linejoin="round"/>
</g>
<g clip-path="url(#clip1)">
<path d="M234.636 178.505L221.964 191.177L233.787 202.999L246.458 190.328L234.636 178.505Z" fill="#E1E6FB"/>
<path d="M248.632 193.512L235.96 206.184L247.783 218.007L260.454 205.335L248.632 193.512Z" fill="#E1E6FB"/>
<path d="M251.63 163.508L238.958 176.179L250.781 188.002L263.453 175.331L251.63 163.508Z" fill="#E1E6FB"/>
<path d="M651.638 379.51L638.966 392.182L650.789 404.004L663.46 391.333L651.638 379.51Z" fill="#E1E6FB"/>
<path d="M665.634 394.507L652.962 407.179L664.785 419.002L677.456 406.33L665.634 394.507Z" fill="#E1E6FB"/>
<path d="M650.634 409.511L637.962 422.182L649.785 434.005L662.456 421.333L650.634 409.511Z" fill="#E1E6FB"/>
<path d="M453.79 121H331.79V184H453.79V121Z" fill="#BAC5F4"/>
<path d="M304.79 357H258.79V459H304.79V357Z" fill="#E1E6FB"/>
<path d="M280.79 366C280.79 366 240.79 301 238.79 284C236.79 267 234.79 261 234.79 261C234.79 261 246.79 259 250.79 268C254.79 277 266.79 266 270.79 290C270.79 290 271.79 302 280.79 298C289.79 294 280.79 366 280.79 366Z" fill="#E1E6FB"/>
<path d="M285.79 376C285.79 376 257.23 323 247.79 302C240.79 286.42 234.79 261 234.79 261C234.79 261 222.73 265.42 223.79 275C224.79 284 215.79 287 217.79 298C219.95 309.9 237.15 312.13 226.79 323C220.5 329.59 225.22 340.84 229.79 348C232.72 352.58 247.17 356.75 243.79 355C236.05 351 285.79 376 285.79 376Z" fill="#BAC5F4"/>
<path d="M267.672 331.557C268.676 331.095 264.621 320.147 258.616 307.103C252.611 294.059 246.93 283.86 245.927 284.322C244.923 284.784 248.978 295.732 254.983 308.776C260.988 321.819 266.669 332.019 267.672 331.557Z" fill="#BAC5F4"/>
<path d="M294.38 408.49C294.38 408.49 233.48 362.49 225.44 347.38C217.4 332.27 213.35 327.38 213.35 327.38C213.35 327.38 223.8 321.15 230.8 328.08C237.8 335.01 244.98 320.4 257.43 341.3C257.43 341.3 258.8 355.97 267.8 352.97C277.13 349.89 294.38 408.49 294.38 408.49Z" fill="#E1E6FB"/>
<path d="M302.67 416C302.67 416 256.79 377 240.36 360.87C228.17 348.87 213.36 327.4 213.36 327.4C213.36 327.4 203.73 335.91 208.2 344.4C212.4 352.4 205.11 358.49 210.98 368.01C217.32 378.31 234.16 374.13 228.46 388.01C225 396.44 233.46 405.2 240.35 410.21C244.74 413.41 259.72 412.04 255.94 411.64C247.24 410.79 302.67 416 302.67 416Z" fill="#F8F8FF"/>
<path d="M263.6 393.289C264.367 392.494 256.61 383.769 246.273 373.802C235.937 363.834 226.936 356.398 226.17 357.193C225.403 357.988 233.16 366.713 243.497 376.681C253.833 386.649 262.834 394.085 263.6 393.289Z" fill="#E1E6FB"/>
<path d="M611.79 286.09C611.79 286.09 659.33 208.79 662.38 188.2C665.43 167.61 667.95 160.39 667.95 160.39C667.95 160.39 654.75 157.39 649.87 168.19C644.99 178.99 632.24 165.04 626.62 194.06C626.62 194.06 624.92 208.62 615.14 203.35C605.36 198.08 611.79 286.09 611.79 286.09Z" fill="#E1E6FB"/>
<path d="M605.79 298C605.79 298 640.06 234.79 651.55 209.66C660.08 191.01 667.98 160.35 667.98 160.35C667.98 160.35 681.13 166.28 679.48 177.88C677.93 188.79 687.75 192.88 684.99 206.14C681.99 220.52 662.83 222.46 673.78 236.14C680.42 244.45 674.64 257.92 669.22 266.43C665.75 271.87 649.53 276.29 653.36 274.32C662.11 269.85 605.79 298 605.79 298Z" fill="#BAC5F4"/>
<path d="M639.28 215.49C631.98 231.09 626.95 244.23 628.04 244.84C629.13 245.45 635.93 233.29 643.23 217.69C650.53 202.09 655.56 188.95 654.47 188.34C653.38 187.73 646.57 199.88 639.28 215.49Z" fill="#BAC5F4"/>
<path d="M594.63 337.18C594.63 337.18 664.39 283.94 674.05 265.92C683.71 247.9 688.43 242.16 688.43 242.16C688.43 242.16 677.16 234.16 669.06 242.23C660.96 250.3 653.73 232.23 638.9 257.12C638.9 257.12 636.66 274.91 626.83 270.85C616.64 266.64 594.63 337.18 594.63 337.18Z" fill="#F8F8FF"/>
<path d="M585.07 345.93C585.07 345.93 637.84 300.55 656.84 281.67C670.94 267.67 688.43 242.16 688.43 242.16C688.43 242.16 698.68 252.95 693.3 263.16C688.24 272.73 696.03 280.44 689.06 291.76C681.52 304 663.06 298.17 668.71 315.33C672.13 325.74 662.29 336.03 654.44 341.81C649.44 345.51 632.89 343.16 637.1 342.81C646.79 342.1 585.07 345.93 585.07 345.93Z" fill="#E1E6FB"/>
<path d="M655.17 293.16C643.73 305.32 635.17 315.97 636.01 316.94C636.85 317.91 646.82 308.83 658.26 296.66C669.7 284.49 678.26 273.85 677.42 272.88C676.58 271.91 666.61 281 655.17 293.16Z" fill="white"/>
<path d="M389.79 357H312.79V459H389.79V357Z" fill="#BAC5F4"/>
<path d="M557.79 358H480.79V460H557.79V358Z" fill="#E1E6FB"/>
<path d="M510.79 121H460.79V185H510.79V121Z" fill="#E1E6FB"/>
<path d="M626.79 174H277.79V431H626.79V174Z" fill="#BAC5F4"/>
<path d="M626.79 174H286.79V431H626.79V174Z" fill="#F8F8FF"/>
<path d="M622.79 178H289.79V196H622.79V178Z" fill="white"/>
<path d="M622.79 195H289.79V427H622.79V195Z" fill="#E1E6FB"/>
<path d="M385.79 204H344.79V250H385.79V204Z" fill="#BAC5F4"/>
<path d="M431.79 204H390.79V250H431.79V204Z" fill="#BAC5F4"/>
<path d="M476.79 204H435.79V250H476.79V204Z" fill="#BAC5F4"/>
<path d="M522.79 204H481.79V250H522.79V204Z" fill="white"/>
<path d="M567.79 204H526.79V250H567.79V204Z" fill="white"/>
<path d="M613.79 204H572.79V250H613.79V204Z" fill="white"/>
<path d="M385.79 257H344.79V303H385.79V257Z" fill="white"/>
<path d="M431.79 257H390.79V303H431.79V257Z" fill="white"/>
<path d="M476.79 257H435.79V303H476.79V257Z" fill="#F8F8FF"/>
<path d="M522.79 257H481.79V303H522.79V257Z" fill="white"/>
<path d="M567.79 257H526.79V303H567.79V257Z" fill="white"/>
<path d="M613.79 257H572.79V303H613.79V257Z" fill="white"/>
<path d="M385.79 308H344.79V354H385.79V308Z" fill="white"/>
<path d="M431.79 308H390.79V354H431.79V308Z" fill="white"/>
<path d="M476.79 308H435.79V354H476.79V308Z" fill="#F8F8FF"/>
<path d="M522.79 308H481.79V354H522.79V308Z" fill="white"/>
<path d="M567.79 308H526.79V354H567.79V308Z" fill="#F8F8FF"/>
<path d="M613.79 308H572.79V354H613.79V308Z" fill="white"/>
<path d="M386.79 360H345.79V406H386.79V360Z" fill="#F8F8FF"/>
<path d="M432.79 360H391.79V406H432.79V360Z" fill="#F8F8FF"/>
<path d="M477.79 360H436.79V406H477.79V360Z" fill="white"/>
<path d="M523.79 360H482.79V406H523.79V360Z" fill="white"/>
<path d="M568.79 360H527.79V406H568.79V360Z" fill="#BAC5F4"/>
<path d="M614.79 360H573.79V406H614.79V360Z" fill="white"/>
<path d="M299.29 191C301.223 191 302.79 189.433 302.79 187.5C302.79 185.567 301.223 184 299.29 184C297.357 184 295.79 185.567 295.79 187.5C295.79 189.433 297.357 191 299.29 191Z" fill="#BAC5F4"/>
<path d="M310.29 191C312.223 191 313.79 189.433 313.79 187.5C313.79 185.567 312.223 184 310.29 184C308.357 184 306.79 185.567 306.79 187.5C306.79 189.433 308.357 191 310.29 191Z" fill="#BAC5F4"/>
<path d="M321.29 191C323.223 191 324.79 189.433 324.79 187.5C324.79 185.567 323.223 184 321.29 184C319.357 184 317.79 185.567 317.79 187.5C317.79 189.433 319.357 191 321.29 191Z" fill="#BAC5F4"/>
<path d="M332.29 256H304.29C301.805 256 299.79 258.015 299.79 260.5C299.79 262.985 301.805 265 304.29 265H332.29C334.775 265 336.79 262.985 336.79 260.5C336.79 258.015 334.775 256 332.29 256Z" fill="white"/>
<path d="M332.29 308H304.29C301.805 308 299.79 310.015 299.79 312.5C299.79 314.985 301.805 317 304.29 317H332.29C334.775 317 336.79 314.985 336.79 312.5C336.79 310.015 334.775 308 332.29 308Z" fill="white"/>
<path d="M332.29 360H304.29C301.805 360 299.79 362.015 299.79 364.5C299.79 366.985 301.805 369 304.29 369H332.29C334.775 369 336.79 366.985 336.79 364.5C336.79 362.015 334.775 360 332.29 360Z" fill="white"/>
<path d="M368.29 260H352.29C350.357 260 348.79 261.567 348.79 263.5C348.79 265.433 350.357 267 352.29 267H368.29C370.223 267 371.79 265.433 371.79 263.5C371.79 261.567 370.223 260 368.29 260Z" fill="#BAC5F4"/>
<path d="M358.29 273H351.29C349.909 273 348.79 274.119 348.79 275.5C348.79 276.881 349.909 278 351.29 278H358.29C359.671 278 360.79 276.881 360.79 275.5C360.79 274.119 359.671 273 358.29 273Z" fill="#BAC5F4"/>
<path d="M414.79 260H398.79C397.133 260 395.79 261.343 395.79 263C395.79 264.657 397.133 266 398.79 266H414.79C416.447 266 417.79 264.657 417.79 263C417.79 261.343 416.447 260 414.79 260Z" fill="#BAC5F4"/>
<path d="M550.79 367H534.79C533.133 367 531.79 368.343 531.79 370C531.79 371.657 533.133 373 534.79 373H550.79C552.447 373 553.79 371.657 553.79 370C553.79 368.343 552.447 367 550.79 367Z" fill="white"/>
<path d="M595.79 313H579.79C578.133 313 576.79 314.343 576.79 316C576.79 317.657 578.133 319 579.79 319H595.79C597.447 319 598.79 317.657 598.79 316C598.79 314.343 597.447 313 595.79 313Z" fill="#F5F5FC"/>
<path d="M594.79 261H578.79C577.133 261 575.79 262.343 575.79 264C575.79 265.657 577.133 267 578.79 267H594.79C596.447 267 597.79 265.657 597.79 264C597.79 262.343 596.447 261 594.79 261Z" fill="#F5F5FC"/>
<path d="M549.79 261H533.79C532.133 261 530.79 262.343 530.79 264C530.79 265.657 532.133 267 533.79 267H549.79C551.447 267 552.79 265.657 552.79 264C552.79 262.343 551.447 261 549.79 261Z" fill="#F5F5FC"/>
<path d="M399.79 278C401.999 278 403.79 276.209 403.79 274C403.79 271.791 401.999 270 399.79 270C397.581 270 395.79 271.791 395.79 274C395.79 276.209 397.581 278 399.79 278Z" fill="#BAC5F4"/>
<path d="M490.79 271C492.999 271 494.79 269.209 494.79 267C494.79 264.791 492.999 263 490.79 263C488.581 263 486.79 264.791 486.79 267C486.79 269.209 488.581 271 490.79 271Z" fill="#BAC5F4"/>
<path d="M504.79 271C506.999 271 508.79 269.209 508.79 267C508.79 264.791 506.999 263 504.79 263C502.581 263 500.79 264.791 500.79 267C500.79 269.209 502.581 271 504.79 271Z" fill="#BAC5F4"/>
<path d="M504.79 321C506.999 321 508.79 319.209 508.79 317C508.79 314.791 506.999 313 504.79 313C502.581 313 500.79 314.791 500.79 317C500.79 319.209 502.581 321 504.79 321Z" fill="#BAC5F4"/>
<path d="M490.79 321C492.999 321 494.79 319.209 494.79 317C494.79 314.791 492.999 313 490.79 313C488.581 313 486.79 314.791 486.79 317C486.79 319.209 488.581 321 490.79 321Z" fill="#BAC5F4"/>
<path d="M503.79 372C505.999 372 507.79 370.209 507.79 368C507.79 365.791 505.999 364 503.79 364C501.581 364 499.79 365.791 499.79 368C499.79 370.209 501.581 372 503.79 372Z" fill="#BAC5F4"/>
<path d="M489.79 372C491.999 372 493.79 370.209 493.79 368C493.79 365.791 491.999 364 489.79 364C487.581 364 485.79 365.791 485.79 368C485.79 370.209 487.581 372 489.79 372Z" fill="#BAC5F4"/>
<path d="M367.79 373C369.999 373 371.79 371.209 371.79 369C371.79 366.791 369.999 365 367.79 365C365.581 365 363.79 366.791 363.79 369C363.79 371.209 365.581 373 367.79 373Z" fill="#BAC5F4"/>
<path d="M353.79 373C355.999 373 357.79 371.209 357.79 369C357.79 366.791 355.999 365 353.79 365C351.581 365 349.79 366.791 349.79 369C349.79 371.209 351.581 373 353.79 373Z" fill="#BAC5F4"/>
<path d="M490.79 217C492.999 217 494.79 215.209 494.79 213C494.79 210.791 492.999 209 490.79 209C488.581 209 486.79 210.791 486.79 213C486.79 215.209 488.581 217 490.79 217Z" fill="#BAC5F4"/>
<path d="M443.79 217C445.999 217 447.79 215.209 447.79 213C447.79 210.791 445.999 209 443.79 209C441.581 209 439.79 210.791 439.79 213C439.79 215.209 441.581 217 443.79 217Z" fill="white"/>
<path d="M457.79 217C459.999 217 461.79 215.209 461.79 213C461.79 210.791 459.999 209 457.79 209C455.581 209 453.79 210.791 453.79 213C453.79 215.209 455.581 217 457.79 217Z" fill="white"/>
<path d="M398.79 217C400.999 217 402.79 215.209 402.79 213C402.79 210.791 400.999 209 398.79 209C396.581 209 394.79 210.791 394.79 213C394.79 215.209 396.581 217 398.79 217Z" fill="white"/>
<path d="M412.79 217C414.999 217 416.79 215.209 416.79 213C416.79 210.791 414.999 209 412.79 209C410.581 209 408.79 210.791 408.79 213C408.79 215.209 410.581 217 412.79 217Z" fill="white"/>
<path d="M353.79 217C355.999 217 357.79 215.209 357.79 213C357.79 210.791 355.999 209 353.79 209C351.581 209 349.79 210.791 349.79 213C349.79 215.209 351.581 217 353.79 217Z" fill="white"/>
<path d="M367.79 217C369.999 217 371.79 215.209 371.79 213C371.79 210.791 369.999 209 367.79 209C365.581 209 363.79 210.791 363.79 213C363.79 215.209 365.581 217 367.79 217Z" fill="white"/>
<path d="M517.602 237.004H520.364V239.069H517.602V243.69H515.059V239.069H505.995V237.579L514.909 223.784H517.602V237.004ZM508.866 237.004H515.059V227.243L514.758 227.79L508.866 237.004Z" fill="#BAC5F4"/>
<path d="M430.967 243.69H417.924V241.872L424.815 234.215C425.836 233.058 426.538 232.119 426.92 231.399C427.312 230.67 427.508 229.918 427.508 229.143C427.508 228.104 427.194 227.252 426.565 226.586C425.936 225.921 425.097 225.588 424.049 225.588C422.791 225.588 421.812 225.948 421.11 226.669C420.417 227.379 420.071 228.373 420.071 229.649H417.541C417.541 227.817 418.129 226.336 419.305 225.206C420.49 224.075 422.071 223.51 424.049 223.51C425.9 223.51 427.362 223.998 428.438 224.973C429.514 225.939 430.051 227.229 430.051 228.842C430.051 230.802 428.803 233.135 426.305 235.842L420.973 241.626H430.967V243.69Z" fill="white"/>
<path d="M384.116 277.006L375.872 295.49H373.219L381.436 277.662H370.663V275.584H384.116V277.006Z" fill="#BAC5F4"/>
<path d="M506.567 295.55H504.024V278.693L498.924 280.566V278.269L506.17 275.548H506.567V295.55ZM526.459 287.06C526.459 290.022 525.954 292.223 524.942 293.663C523.93 295.103 522.349 295.823 520.198 295.823C518.074 295.823 516.502 295.122 515.481 293.718C514.46 292.305 513.931 290.2 513.895 287.402V284.025C513.895 281.099 514.401 278.925 515.413 277.503C516.424 276.081 518.01 275.37 520.17 275.37C522.312 275.37 523.889 276.058 524.901 277.435C525.913 278.802 526.432 280.917 526.459 283.779V287.06ZM523.93 283.601C523.93 281.459 523.629 279.9 523.028 278.925C522.426 277.941 521.474 277.448 520.17 277.448C518.876 277.448 517.933 277.936 517.34 278.911C516.748 279.887 516.442 281.386 516.424 283.409V287.456C516.424 289.607 516.734 291.198 517.354 292.228C517.983 293.249 518.931 293.759 520.198 293.759C521.446 293.759 522.371 293.276 522.973 292.31C523.584 291.344 523.903 289.821 523.93 287.743V283.601Z" fill="#BAC5F4"/>
<path d="M464.217 347.32H461.674V330.463L456.574 332.336V330.039L463.82 327.318H464.217V347.32ZM472.789 337.34L473.801 327.414H484V329.752H475.947L475.346 335.179C476.321 334.605 477.428 334.318 478.668 334.318C480.482 334.318 481.922 334.92 482.988 336.123C484.055 337.317 484.588 338.935 484.588 340.976C484.588 343.027 484.032 344.645 482.92 345.83C481.817 347.006 480.272 347.593 478.285 347.593C476.526 347.593 475.09 347.106 473.979 346.131C472.867 345.155 472.233 343.806 472.078 342.084H474.471C474.626 343.223 475.031 344.084 475.688 344.668C476.344 345.242 477.21 345.529 478.285 345.529C479.461 345.529 480.382 345.128 481.047 344.326C481.721 343.524 482.059 342.416 482.059 341.004C482.059 339.673 481.694 338.606 480.965 337.804C480.245 336.993 479.283 336.588 478.08 336.588C476.977 336.588 476.111 336.829 475.482 337.312L474.812 337.859L472.789 337.34Z" fill="#BAC5F4"/>
<path d="M599.217 349.32H596.674V332.463L591.574 334.336V332.039L598.82 329.318H599.217V349.32ZM618.699 334.609C618.699 335.603 618.435 336.487 617.906 337.261C617.387 338.036 616.68 338.642 615.787 339.08C616.826 339.526 617.646 340.178 618.248 341.035C618.859 341.892 619.164 342.862 619.164 343.947C619.164 345.67 618.581 347.041 617.414 348.062C616.257 349.083 614.73 349.593 612.834 349.593C610.92 349.593 609.384 349.083 608.227 348.062C607.078 347.032 606.504 345.661 606.504 343.947C606.504 342.871 606.796 341.901 607.379 341.035C607.971 340.169 608.787 339.513 609.826 339.066C608.942 338.629 608.245 338.022 607.734 337.248C607.224 336.473 606.969 335.593 606.969 334.609C606.969 332.932 607.507 331.601 608.582 330.617C609.658 329.633 611.075 329.14 612.834 329.14C614.584 329.14 615.997 329.633 617.072 330.617C618.157 331.601 618.699 332.932 618.699 334.609ZM616.635 343.892C616.635 342.78 616.279 341.873 615.568 341.172C614.867 340.47 613.946 340.119 612.807 340.119C611.667 340.119 610.751 340.465 610.059 341.158C609.375 341.851 609.033 342.762 609.033 343.892C609.033 345.022 609.366 345.911 610.031 346.558C610.706 347.205 611.64 347.529 612.834 347.529C614.019 347.529 614.949 347.205 615.623 346.558C616.298 345.902 616.635 345.013 616.635 343.892ZM612.834 331.218C611.84 331.218 611.034 331.528 610.414 332.148C609.803 332.759 609.498 333.593 609.498 334.65C609.498 335.662 609.799 336.482 610.4 337.111C611.011 337.731 611.822 338.041 612.834 338.041C613.846 338.041 614.652 337.731 615.254 337.111C615.865 336.482 616.17 335.662 616.17 334.65C616.17 333.638 615.855 332.813 615.227 332.175C614.598 331.537 613.8 331.218 612.834 331.218Z" fill="#BAC5F4"/>
<path d="M427.867 388.22C427.867 391.182 427.361 393.383 426.349 394.823C425.337 396.263 423.756 396.983 421.605 396.983C419.481 396.983 417.909 396.282 416.888 394.878C415.867 393.465 415.339 391.36 415.302 388.562V385.185C415.302 382.259 415.808 380.085 416.82 378.663C417.832 377.241 419.418 376.53 421.578 376.53C423.72 376.53 425.296 377.218 426.308 378.595C427.32 379.962 427.839 382.077 427.867 384.939V388.22ZM425.337 384.761C425.337 382.619 425.037 381.06 424.435 380.085C423.834 379.101 422.881 378.608 421.578 378.608C420.283 378.608 419.34 379.096 418.748 380.071C418.155 381.047 417.85 382.546 417.832 384.569V388.616C417.832 390.767 418.141 392.358 418.761 393.388C419.39 394.409 420.338 394.919 421.605 394.919C422.854 394.919 423.779 394.436 424.38 393.47C424.991 392.504 425.31 390.981 425.337 388.903V384.761Z" fill="#BAC5F4"/>
<path d="M448.34 203C452.189 196.333 461.811 196.333 465.66 203L573.047 389C576.896 395.667 572.085 404 564.387 404H349.613C341.915 404 337.104 395.667 340.953 389L448.34 203Z" fill="url(#paint0_linear)"/>
<path d="M459.332 329.918H449.547L448.785 268.688H460.152L459.332 329.918ZM448.375 348.551C448.375 346.793 448.902 345.328 449.957 344.156C451.051 342.945 452.652 342.34 454.762 342.34C456.871 342.34 458.473 342.945 459.566 344.156C460.66 345.328 461.207 346.793 461.207 348.551C461.207 350.309 460.66 351.773 459.566 352.945C458.473 354.078 456.871 354.645 454.762 354.645C452.652 354.645 451.051 354.078 449.957 352.945C448.902 351.773 448.375 350.309 448.375 348.551Z" fill="white"/>
</g>
<path d="M301.525 329.946L365.744 338.728C368.208 339.064 369.925 341.306 369.589 343.773L360.106 413.279C359.77 415.745 357.53 417.464 355.065 417.128L290.847 408.346C288.383 408.01 286.665 405.768 287.001 403.301L296.485 333.795C296.821 331.366 299.061 329.61 301.525 329.946Z" fill="#BAC5F4"/>
<path d="M271.096 519.78C269.192 520.154 262.546 518.099 261.426 517.052C261.053 516.716 260.754 515.744 260.455 515.333C260.194 514.026 259.559 514.698 258.924 514.586C257.02 514.175 251.868 512.83 249.441 514.138C248.993 515.147 248.956 516.118 248.657 516.679C248.022 519.22 247.612 521.836 247.35 524.451C247.164 526.058 248.321 527.478 249.889 527.665C249.889 527.665 249.889 527.665 249.926 527.665H249.964C250.486 527.703 251.047 527.665 251.607 527.59C255.714 526.581 264.04 526.32 267.25 525.049C272.627 523.629 275.688 520.789 271.096 519.78Z" fill="#4B44BE"/>
<path d="M334.979 522.807C333.112 523.293 326.317 521.649 325.159 520.677C324.748 520.378 324.412 519.444 324.076 519.033C323.74 517.762 323.143 518.435 322.508 518.36C320.567 518.061 315.34 517.015 312.987 518.472C312.577 519.481 312.651 520.49 312.39 521.051C311.942 523.629 311.643 526.283 311.569 528.898C311.494 530.505 312.726 531.851 314.332 531.963C314.332 531.963 314.332 531.963 314.369 531.963H314.406C314.929 532 315.489 531.925 316.012 531.813C320.044 530.543 328.333 529.795 331.469 528.3C336.733 526.544 339.646 523.517 334.979 522.807Z" fill="#4B44BE"/>
<path d="M249.217 514.212C252.465 514.661 260.269 514.773 260.269 514.773C260.269 514.773 260.754 510.961 263.143 503.637C265.57 496.201 277.779 472.882 277.779 472.882C280.281 469.071 282.894 461.186 282.894 461.186L286.553 430.992C286.553 430.992 305.856 461.148 305.595 467.987C305.334 474.825 310.113 501.582 310.113 501.582C310.598 505.58 312.987 518.809 312.987 518.809C316.572 518.36 320.193 518.286 323.815 518.51C323.33 513.017 321.351 490.483 321.351 490.483C321.351 490.483 320.119 472.994 319.857 462.344C319.596 451.694 312.017 429.235 306.902 418.959C306.23 417.203 305.67 415.446 305.222 413.615L260.082 419.333C261.09 422.21 261.911 425.125 262.509 428.114C265.16 441.455 267.026 463.876 267.026 463.876C259.97 471.873 255.527 486.933 255.527 486.933C252.652 495.976 249.217 514.212 249.217 514.212Z" fill="url(#paint1_linear)"/>
<path d="M299.397 329.161C292.453 327.853 285.321 330.32 285.321 330.32L284.127 330.693L276.734 340.185L283.566 338.354C285.396 337.719 288.98 336.747 290.623 336.859C291.855 336.785 294.767 337.382 296.149 336.261C297.194 335.776 297.381 334.916 299.509 332.823C301.04 331.142 300.592 330.656 301.189 330.432C301.973 330.096 301.301 329.311 299.397 329.161Z" fill="url(#paint2_linear)"/>
<path d="M323.927 413.466C323.852 413.092 322.508 413.316 322.284 412.98C320.828 410.925 319.111 408.309 315.452 407.076C314.406 406.739 313.323 406.515 312.241 406.403L309.777 410.7C310.075 411.448 310.486 412.158 310.934 412.793C312.427 414.811 315.564 417.539 321.313 416.792C322.658 416.642 324.114 414.848 323.927 413.466Z" fill="url(#paint3_linear)"/>
<path d="M272.59 317.913C271.768 317.913 254.444 331.291 254.295 332.786C254.257 333.571 254.22 336.971 253.623 339.214C253.063 341.306 251.383 344.296 251.383 344.296C251.383 344.296 252.876 347.098 256.759 347.659C260.493 348.182 265.496 346.949 265.496 346.949C265.496 346.949 264.338 339.55 265.757 338.728C266.989 338.018 267.363 338.765 271.619 335.178C275.875 331.59 274.494 322.547 274.382 321.949C274.27 321.351 273.411 317.913 272.59 317.913Z" fill="url(#paint4_linear)"/>
<path d="M292.378 380.506C286.74 375.387 283.156 359.43 281.364 355.432C279.571 351.433 276.697 350.312 275.576 349.864C275.016 349.639 271.918 348.78 269.603 348.107L286.404 337.532C288.682 333.235 284.201 330.656 284.201 330.656L265.085 340.148V346.613L258.887 345.604L251.495 344.146C249.217 343.623 246.902 343.249 244.587 343.063C243.617 342.988 242.646 343.1 241.712 343.436L241.227 343.623C240.07 344.034 239.099 344.856 238.539 345.977C237.344 348.593 236.523 351.396 236.149 354.236C235.44 358.832 238.987 369.258 242.609 376.844C244.177 380.058 250.3 396.575 251.831 400.723C259.298 418.062 259.821 419.407 259.821 419.407C282.745 419.183 305.072 414.064 305.072 414.064C306.118 412.158 302.347 406.627 302.347 406.627L309.291 412.382C312.315 413.354 314.817 406.59 314.817 406.59C314.817 406.59 297.12 384.804 292.378 380.506Z" fill="url(#paint5_linear)"/>
<path d="M251.047 318.698C251.42 318.025 252.241 316.493 252.727 315.933C253.548 315.073 254.444 314.251 255.378 313.466C256.236 312.943 258.364 311.859 259.186 311.411C262.098 310.514 265.981 311.411 268.819 311.561C271.395 311.374 273.299 314.587 274.307 316.717C275.315 318.847 273.374 318.586 273.56 320.23C273.598 320.529 272.739 320.978 271.992 321.389C271.245 321.8 269.117 325.2 268.371 326.807C267.587 322.883 264.973 329.871 265.458 330.731C264.413 331.403 263.144 334.243 261.277 335.14C259.97 334.58 257.543 332.412 254.295 333.01C254.071 332.412 250.86 330.021 250.524 325.985C250.262 324.789 250.001 320.492 251.047 318.698Z" fill="url(#paint6_linear)"/>
<path opacity="0.07" d="M260.941 336.336C260.941 336.336 263.853 338.952 265.608 338.877L265.16 341.082L265.272 344.258C265.272 344.258 264.152 342.465 262.733 340.634C261.837 339.363 261.202 337.906 260.941 336.336Z" fill="black"/>
<path opacity="0.07" d="M271.507 368.436C271.507 368.436 275.166 379.46 286.441 390.932C297.717 402.404 300.442 404.796 300.442 404.796C300.442 404.796 302.757 407.711 302.011 409.654C301.264 411.597 296.335 405.095 285.284 400.05C278.974 397.173 276.809 392.203 273.896 385.252C270.237 376.47 269.416 374.602 268.931 371.463C267.699 363.242 271.507 368.436 271.507 368.436Z" fill="black"/>
<path opacity="0.07" d="M286.516 430.954C286.516 430.954 281.177 442.501 279.646 448.144C278.078 453.974 278.078 462.456 273.374 466.567C268.035 471.238 261.762 486.933 260.306 490.259C258.252 495.005 254.033 521.163 255.266 522.994C256.46 524.788 261.277 522.097 261.277 522.097C261.277 522.097 259.522 515.446 261.015 509.429C262.509 503.413 269.528 487.344 273.934 479.385C277.929 472.247 281.998 463.988 282.894 459.205C283.79 454.422 286.516 430.954 286.516 430.954Z" fill="black"/>
<defs>
<linearGradient id="paint0_linear" x1="313" y1="332" x2="601.405" y2="332" gradientUnits="userSpaceOnUse">
<stop stop-color="#F87B58"/>
<stop offset="0.41" stop-color="#F89453"/>
<stop offset="0.94" stop-color="#F8C548"/>
</linearGradient>
<linearGradient id="paint1_linear" x1="249.217" y1="466.212" x2="323.815" y2="466.212" gradientUnits="userSpaceOnUse">
<stop stop-color="#4F68CA"/>
<stop offset="1" stop-color="#5ACEED"/>
</linearGradient>
<linearGradient id="paint2_linear" x1="276.734" y1="334.482" x2="301.545" y2="334.482" gradientUnits="userSpaceOnUse">
<stop stop-color="#F87B58"/>
<stop offset="0.41" stop-color="#F89453"/>
<stop offset="0.94" stop-color="#F8C548"/>
</linearGradient>
<linearGradient id="paint3_linear" x1="309.777" y1="411.66" x2="323.963" y2="411.66" gradientUnits="userSpaceOnUse">
<stop stop-color="#F87B58"/>
<stop offset="0.41" stop-color="#F89453"/>
<stop offset="0.94" stop-color="#F8C548"/>
</linearGradient>
<linearGradient id="paint4_linear" x1="251.383" y1="332.851" x2="274.716" y2="332.851" gradientUnits="userSpaceOnUse">
<stop stop-color="#F87B58"/>
<stop offset="0.41" stop-color="#F89453"/>
<stop offset="0.94" stop-color="#F8C548"/>
</linearGradient>
<linearGradient id="paint5_linear" x1="236.058" y1="375.032" x2="314.817" y2="375.032" gradientUnits="userSpaceOnUse">
<stop stop-color="#E1A1ED"/>
<stop offset="1" stop-color="#7658F4"/>
</linearGradient>
<linearGradient id="paint6_linear" x1="248.627" y1="328.372" x2="270.86" y2="318.625" gradientUnits="userSpaceOnUse">
<stop stop-color="#4B44BE"/>
<stop offset="1" stop-color="#5BD3EF"/>
</linearGradient>
<clipPath id="clip0">
<rect width="900.07" height="580.1" fill="white"/>
</clipPath>
<clipPath id="clip1">
<rect width="487.87" height="339" fill="white" transform="translate(207 121)"/>
</clipPath>
</defs>
</svg>
